HIERARCHY
ROOT joint_0
{
	OFFSET 0.000000 0.000000 0.000000
	CHANNELS 6 Xposition Yposition Zposition Zrotation Yrotation Xrotation 
	JOINT joint_1
	{
		OFFSET 1.363060 -1.794630 0.839290
		CHANNELS 3 Zrotation Yrotation Xrotation
		JOINT joint_2
		{
			OFFSET 2.448110 -6.726130 0.000000
			CHANNELS 3 Zrotation Yrotation Xrotation
			JOINT joint_3
			{
				OFFSET 2.562200 -7.039590 0.000000
				CHANNELS 3 Zrotation Yrotation Xrotation
				JOINT joint_4
				{
					OFFSET 0.157640 -0.433110 2.322550
					CHANNELS 3 Zrotation Yrotation Xrotation
					End Site
					{
						OFFSET 0.000000 0.000000 0.000000
					}
				}
			}
		}
	}
	JOINT joint_5
	{
		OFFSET -1.305520 -1.794630 0.839290
		CHANNELS 3 Zrotation Yrotation Xrotation
		JOINT joint_6
		{
			OFFSET -2.542530 -6.985550 0.000000
			CHANNELS 3 Zrotation Yrotation Xrotation
			JOINT joint_7
			{
				OFFSET -2.568260 -7.056230 0.000000
				CHANNELS 3 Zrotation Yrotation Xrotation
				JOINT joint_8
				{
					OFFSET -0.164730 -0.452590 2.363150
					CHANNELS 3 Zrotation Yrotation Xrotation
					End Site
					{
						OFFSET 0.000000 0.000000 0.000000
					}
				}
			}
		}
	}
	JOINT joint_9
	{
		OFFSET 0.028270 2.035590 -0.193380
		CHANNELS 3 Zrotation Yrotation Xrotation
		JOINT joint_10
		{
			OFFSET 0.056720 2.048850 -0.042750
			CHANNELS 3 Zrotation Yrotation Xrotation
			JOINT joint_11
			{
				OFFSET -0.054170 1.746240 0.172020
				CHANNELS 3 Zrotation Yrotation Xrotation
				JOINT joint_12
				{
					OFFSET 0.104070 1.761360 -0.123970
					CHANNELS 3 Zrotation Yrotation Xrotation
					End Site
					{
						OFFSET 0.000000 0.000000 0.000000
					}
				}
			}
			JOINT joint_13
			{
				OFFSET 3.362410 1.200890 -0.311210
				CHANNELS 3 Zrotation Yrotation Xrotation
				JOINT joint_14
				{
					OFFSET 4.983000 -0.000000 -0.000000
					CHANNELS 3 Zrotation Yrotation Xrotation
					JOINT joint_15
					{
						OFFSET 3.483560 -0.000000 -0.000000
						CHANNELS 3 Zrotation Yrotation Xrotation
						JOINT joint_16
						{
							OFFSET 0.000000 0.000000 0.000000
							CHANNELS 3 Zrotation Yrotation Xrotation
							End Site
							{
								OFFSET 0.000000 0.000000 0.000000
							}
						}
					}
				}
			}
			JOINT joint_17
			{
				OFFSET -3.136600 1.374050 -0.404650
				CHANNELS 3 Zrotation Yrotation Xrotation
				JOINT joint_18
				{
					OFFSET -5.241900 -0.000000 -0.000000
					CHANNELS 3 Zrotation Yrotation Xrotation
					JOINT joint_19
					{
						OFFSET -3.444170 -0.000000 -0.000000
						CHANNELS 3 Zrotation Yrotation Xrotation
						JOINT joint_20
						{
							OFFSET 0.000000 0.000000 0.000000
							CHANNELS 3 Zrotation Yrotation Xrotation
							End Site
							{
								OFFSET 0.000000 0.000000 0.000000
							}
						}
					}
				}
			}
		}
	}
}
MOTION
Frames: 16
Frame Time: 0.031667
-9.504039 13.213994 1.398569 -12.802456 78.930977 -3.364663 -30.133640 17.375839 -77.016127 -12.714097 44.336264 48.361598 1.905425 -18.917023 84.324716 5.630119 -0.785122 1.995442 33.865475 41.076785 -15.862440 -3.955338 -20.208646 52.929748 125.366633 33.558178 43.525620 -15.738501 1.012752 11.819098 -30.626483 -19.205981 1.450463 -4.864601 -8.749276 -11.739259 -3.533531 21.710905 60.593852 2.402143 -6.200885 -8.777169 28.159885 -71.696612 23.312465 -108.781221 -68.206168 117.666027 14.307377 8.591803 19.655614 -8.248796 -0.166020 0.235361 -41.129005 63.267127 -51.047290 126.784422 88.252664 -171.720676 -11.637790 6.314610 -95.639819 8.536453 0.184488 0.074308 
-9.044865 13.234505 1.380784 -15.252708 78.662460 -5.019760 -6.801390 30.453109 -100.378734 -45.803600 41.175345 65.084511 -98.934040 -36.069628 14.959557 7.379122 -2.644066 -4.453190 4.439015 6.749362 -12.394510 -8.719776 -29.842230 47.411044 95.126681 38.647328 60.042704 -14.701716 4.139539 -0.966347 27.208231 -24.200523 3.514099 28.799633 -31.467129 -10.364455 4.443698 22.215878 66.685124 26.139163 -11.015930 5.182900 28.172346 -78.973427 67.527758 -109.690811 -53.786587 91.750554 -4.189288 1.740873 -18.446965 -8.099961 -0.186534 0.284995 -66.350671 77.734834 46.013458 96.362920 80.131808 146.209685 -6.150677 4.802134 -91.955376 8.434333 0.247701 0.058382 
-8.582102 13.253814 1.375227 -16.009581 78.725639 -5.274573 10.411561 27.645616 -116.559063 -6.090419 33.124901 53.595825 -23.790143 -12.203565 43.494354 4.411861 0.334731 5.946361 65.794044 7.106637 -33.988599 -7.980501 -23.154394 62.951559 -37.401279 38.138110 110.908345 -11.447428 3.851947 -3.693073 -10.097419 13.027955 -8.549561 3.798050 -17.237512 33.130007 8.900268 28.030591 62.041122 39.092905 -15.352930 9.341493 124.158901 -89.526863 135.413874 -133.753964 -82.051440 134.721863 -39.103738 17.309873 -70.801611 -8.046251 -0.266206 0.527501 40.390795 81.092473 136.856200 89.248130 80.599765 119.985867 -28.892895 12.574413 -104.203115 8.418265 0.499494 0.076286 
-8.108243 13.300405 1.390545 -14.743326 79.047958 -3.570675 33.418606 17.546601 -107.953817 3.407836 2.146007 10.621631 94.708940 3.178949 -79.732760 -0.176677 1.271011 10.506054 -0.672307 -4.061705 -59.329393 22.239968 -33.512924 23.895726 -19.153292 23.181915 19.904676 -7.114588 1.817364 -0.809738 10.879544 36.568829 13.828137 38.580856 -26.810263 39.892779 -31.311407 -0.299215 55.594656 25.141184 -16.966065 -4.315941 73.045016 -72.051640 100.219798 32.817051 -83.650638 -20.985618 -53.609619 17.834124 41.981935 -7.869672 -0.354094 0.847500 -47.142261 84.132196 11.057958 -98.650574 55.596391 -57.843328 -43.401877 -3.749786 -13.867097 8.173089 0.828686 0.093073 
-7.625435 13.354099 1.398971 -12.545284 79.557106 -1.045868 -5.901598 35.046121 -80.700195 11.917463 7.391095 -39.960066 -103.595627 14.341604 -21.376812 -0.363825 1.864505 11.184497 19.380069 -8.791252 -79.458944 -9.819328 -48.035498 39.940815 -4.534642 -4.906860 -90.735245 -4.002184 -1.516401 7.143236 22.503201 8.927543 37.874441 -39.157447 -19.088432 -38.175454 21.830857 5.736760 72.324368 -3.762760 -18.555261 -25.750563 110.509054 -61.217177 126.274446 14.493757 -63.453011 -38.453651 -19.119890 3.787921 87.709130 -7.928467 -0.450219 0.994799 49.189593 72.448003 -111.381099 -41.190962 37.181094 -48.764720 -16.575109 13.777875 6.932711 8.128379 0.971364 0.149641 
-7.136471 13.432327 1.396847 -12.834898 80.075310 -0.522212 -23.420334 13.534302 -72.161768 -11.632273 7.196887 37.930858 -140.503934 33.595996 -44.425825 2.768250 3.326310 14.039815 4.974286 -10.672011 14.972202 7.190565 -12.838229 85.456608 -28.873108 -20.514012 -133.325334 -2.717009 -6.377026 19.508636 24.220684 -36.715866 52.632471 20.153141 6.830755 -28.469755 38.312529 4.123259 46.598853 -26.831964 -19.348939 -46.398547 2.767188 -72.741592 -86.407376 44.354521 -63.026035 -48.464666 -23.811049 13.985310 110.154743 -7.781334 -0.545956 0.957054 102.088889 84.883086 163.000706 25.213874 69.877562 22.061617 29.593581 9.685066 20.519630 7.982442 0.914250 0.314223 
-6.670526 13.501952 1.377144 -15.472880 80.590347 -2.654320 -69.458133 -33.596136 -44.575676 -3.013402 60.747593 75.233256 -119.997544 -21.995612 -22.870824 10.669606 -0.158052 0.827261 30.356134 45.907187 -71.082892 -26.741446 -23.079979 140.919356 7.799788 6.757304 -30.408190 -5.139648 -12.601030 35.498296 4.042465 -15.338708 20.242140 -26.236795 18.023590 -1.480439 18.444513 15.663056 45.018344 -14.011045 -15.417707 -39.763312 -140.124516 -79.267646 -158.699717 76.349760 -74.614489 -67.129941 -4.183479 32.433222 59.048973 -7.865398 -0.554341 0.658196 101.147215 89.549847 -87.627630 178.323074 64.308562 -170.787151 -8.549932 -6.464748 -18.045611 8.206408 0.607364 0.449619 
-6.211817 13.555721 1.369746 -18.887506 81.359276 -5.776923 -29.603683 -13.843947 -41.100117 -39.050603 61.481149 87.187952 144.178617 -30.192602 34.290142 16.275173 -8.263247 -24.668622 59.464972 74.173662 -57.527371 -38.317860 -39.512713 123.552057 3.743508 15.413662 42.398450 -6.183604 -18.991546 52.049631 1.715024 -0.959611 29.061355 -9.003158 -12.067816 -33.921831 10.714016 -16.732954 91.711989 11.864796 -12.410773 -24.328227 121.417841 -53.558744 -76.394273 46.059391 -82.570478 -32.749244 -38.289214 27.531371 38.024971 -8.085055 -0.390934 0.365027 91.573374 88.282627 77.718691 89.624037 44.036164 134.128245 13.118124 -2.845553 -19.260748 8.528669 0.312614 0.319591 
-5.754084 13.606577 1.388607 -22.488663 82.385277 -9.056768 -3.982884 -10.266170 -34.911668 -22.450596 25.553742 72.543473 142.292378 -45.227498 16.796543 15.706192 -15.255004 -46.066255 39.550548 51.642483 -26.797315 9.374792 -15.955786 93.503118 -30.403183 4.632916 70.077290 -1.746543 -16.178085 41.744993 2.388273 21.716230 23.895816 20.988254 -7.427268 -5.827907 3.313790 -6.645819 87.319030 18.168966 -9.188988 -20.691927 67.833935 -53.220793 -151.866483 14.193945 -57.138904 -5.386101 -14.563647 36.691356 49.592521 -7.846482 -0.250520 0.239776 160.061539 85.216459 -76.339850 61.047556 69.213266 119.841463 -22.588484 5.177552 1.316736 8.260700 0.212729 0.138016 
-5.301321 13.663393 1.430833 -25.437986 83.286415 -11.655134 18.737475 -32.765920 -2.841657 7.879584 10.997519 49.330065 -103.970369 -31.432817 -101.570930 12.086483 -15.568274 -46.432958 43.761288 15.481652 -3.748791 -0.964239 -31.971801 57.838882 -6.829918 5.228531 100.398364 3.174840 -15.489628 38.731670 5.096411 -0.972858 11.249036 7.532773 6.476797 -0.851461 39.830576 -7.536497 50.101610 13.495043 -8.024007 -24.013639 -22.283327 -68.167323 -15.675521 2.230841 -53.741049 14.878934 -14.412170 11.003670 30.669445 -7.777758 -0.189686 0.272537 -174.409659 71.222310 -92.633136 -63.775532 86.399591 -46.116522 -12.957209 -16.597711 -55.657337 8.075263 0.268781 -0.030408 
-4.854264 13.730706 1.477207 -27.362179 84.278252 -13.071217 -0.051878 -5.659639 -10.052923 -8.623311 7.084802 15.605474 -10.735069 -14.591280 -42.864273 10.018788 -9.817941 -29.275833 6.854341 9.120435 -3.520124 -11.688889 -8.855041 43.848585 -27.014921 -12.256491 -47.453678 5.359439 -15.696417 39.146594 -5.155030 -4.343017 15.246398 19.239338 -0.134705 -38.993881 20.325229 -4.717196 21.073551 16.623345 -8.534473 -27.416495 -67.551220 -73.376579 160.634875 -2.644516 -44.316870 -20.444360 -20.203163 8.367751 87.923762 -7.571466 -0.220637 0.248716 42.736603 84.858059 81.284162 1.568193 53.600558 17.524664 -7.803411 -14.939715 -27.164270 7.738595 0.265052 -0.089282 
-4.434174 13.791907 1.522553 -32.812950 85.215744 -18.129774 -35.986580 -11.456090 -46.327349 -17.863431 5.813519 24.161499 39.203489 -27.532942 -31.885393 11.450758 -4.233007 -13.188760 10.608451 25.299929 -34.753731 2.906784 -16.886837 55.257812 4.339411 -15.840612 -117.920853 3.670124 -15.996224 39.584081 15.544488 8.937685 4.753362 -27.601105 -17.560350 -10.367683 13.949877 3.110639 68.302821 26.109016 -9.159581 -25.943357 11.494849 -76.224153 -116.458923 -1.387369 -36.274223 -20.934557 -28.245803 14.145773 15.284877 -7.284487 -0.292008 0.232849 134.777705 63.684527 121.114035 25.563520 64.465866 50.812574 -23.560198 -6.433690 8.331796 7.427285 0.244780 -0.010220 
-4.034414 13.848228 1.565736 -39.149872 85.516022 -24.179087 -45.577494 -6.345144 -71.404007 -32.403599 24.948693 46.286375 -6.858457 -21.426220 12.250990 14.504262 -1.600389 -6.322888 21.005690 25.116397 -36.011735 -8.836234 -26.046846 95.626979 -13.627363 3.445710 -57.494886 1.038438 -17.417201 43.624459 -0.898504 5.511774 11.972886 -0.083061 3.683950 -13.476139 13.622384 6.394742 53.977349 34.597637 -9.017726 -23.243089 72.010684 -64.426080 -28.379567 22.807334 -31.473256 -36.535587 -2.237433 19.614720 17.965537 -7.247755 -0.308118 0.168115 -0.399002 43.157773 -15.923514 -7.058920 67.333446 5.509226 -5.277896 -2.047785 4.924150 7.440200 0.171714 0.107728 
-3.661366 13.910210 1.598949 -50.529392 85.616112 -35.274521 -16.265735 -18.307414 -63.555928 -17.161906 24.366966 46.087203 4.169715 -23.406529 23.591386 15.971542 -1.463176 -6.966606 21.329631 20.927078 -32.843610 -12.163308 -28.811804 84.506966 -7.444434 9.746148 -11.853844 1.213932 -15.272750 36.855663 1.963525 11.429523 -1.830195 0.476171 -3.464942 -16.675374 0.954111 4.011198 30.832331 35.478619 -10.293495 -26.622607 63.627112 -51.497796 -60.595157 28.717465 -24.575825 -16.794749 -10.033718 21.320844 23.018444 -7.247521 -0.254107 0.033903 -15.949824 38.507521 -13.572350 -30.627432 75.468796 -18.057642 -18.261042 -12.348869 0.101686 7.425617 0.044975 0.114270 
-3.304685 13.968498 1.626381 -61.906971 85.509636 -46.461094 -9.408669 -9.449291 -41.851024 -4.751009 7.288944 44.195487 -13.442000 -15.743492 9.638724 14.390816 -0.888982 -5.786932 3.614706 9.335144 -35.781370 -10.672049 -19.977279 63.858061 2.135744 6.479241 4.479855 2.385050 -11.320100 26.162500 7.166778 -5.946803 0.385282 6.978134 6.926611 -10.507247 -0.695699 -2.741757 22.273003 35.589353 -9.591600 -29.288661 52.527143 -50.611002 -35.261449 20.267750 -17.653234 -21.516523 10.442099 5.215388 19.037546 -7.219038 -0.151336 -0.004330 8.033393 43.378945 8.922335 -35.953993 57.266888 -23.860699 -12.817795 -2.570052 -12.891390 7.327476 0.007899 0.096003 
-2.961126 14.028904 1.650556 -71.269341 85.145607 -55.439491 -9.402427 -10.068042 -47.875904 -7.589105 10.277877 50.809603 4.008420 -10.654272 14.206970 11.821902 0.538999 -2.135819 4.774620 -0.136389 -26.783762 -5.910101 -20.441853 68.643913 -16.502777 4.844350 3.067882 2.536910 -11.463732 26.277466 7.546790 1.829417 -0.746558 3.968365 2.392165 -8.647709 1.485098 -1.855336 4.941498 33.874180 -7.633778 -28.140857 37.924841 -52.438091 -27.394839 17.362122 -19.555817 -15.383070 10.223256 2.125258 19.623912 -7.257434 -0.050633 -0.003695 7.645177 47.777597 22.237651 -27.030226 34.882012 -11.299988 -17.492938 -8.237025 -14.652332 7.294220 0.003057 0.018184 
